<?xml version="1.0" standalone="no"?>
<!DOCTYPE svg PUBLIC "-//W3C//DTD SVG 20010904//EN"
 "http://www.w3.org/TR/2001/REC-SVG-20010904/DTD/svg10.dtd">
<svg version="1.0" xmlns="http://www.w3.org/2000/svg"
 width="270.000000pt" height="270.000000pt" viewBox="0 0 270.000000 270.000000"
 preserveAspectRatio="xMidYMid meet">
<metadata>
Created by potrace 1.11, written by Peter Selinger 2001-2013
</metadata>
<g transform="translate(0.000000,270.000000) scale(0.100000,-0.100000)"
fill="#000000" stroke="none">
<path d="M1170 2059 c-19 -5 -51 -11 -70 -15 -53 -9 -155 -58 -226 -109 -194
-139 -298 -390 -290 -700 11 -376 204 -634 534 -714 59 -15 106 -18 202 -16
69 1 139 6 155 9 264 57 432 234 499 523 l14 62 -164 0 -163 1 -11 -43 c-48
-189 -166 -291 -340 -296 -80 -2 -149 18 -209 61 -65 47 -88 74 -127 153 -45
93 -63 185 -62 314 4 332 150 517 411 519 138 1 263 -73 305 -180 12 -29 22
-62 24 -73 3 -19 12 -20 164 -23 125 -2 163 0 167 10 7 21 -30 157 -60 215
-27 54 -114 152 -168 189 -68 47 -183 92 -275 109 -55 11 -271 13 -310 4z"/>
<path d="M2152 1951 c-23 -49 -48 -91 -55 -93 -7 -2 -51 -4 -99 -3 -49 0 -88
-3 -88 -6 0 -4 32 -38 71 -76 l72 -70 -12 -35 c-6 -19 -13 -44 -16 -54 -2 -10
-10 -38 -19 -62 -14 -40 -14 -43 2 -40 9 2 19 6 22 9 3 3 37 23 77 43 l72 38
81 -57 c45 -31 84 -54 86 -52 3 2 0 24 -5 48 -5 24 -13 64 -16 89 -4 24 -8 47
-11 51 -3 6 15 23 114 100 28 22 52 41 52 42 0 1 -17 3 -37 5 -20 1 -48 5 -62
8 -14 3 -42 7 -61 8 -19 2 -38 4 -41 5 -4 0 -22 44 -40 96 -19 52 -36 95 -39
95 -3 -1 -24 -41 -48 -89z"/>
<path d="M1272 1711 c2 -65 0 -75 -17 -85 -11 -6 -22 -14 -25 -17 -3 -3 -20
-14 -38 -23 -31 -16 -36 -36 -8 -36 7 0 36 -7 64 -15 40 -12 52 -20 52 -36 0
-29 21 -109 29 -109 3 1 23 28 44 61 20 33 42 57 47 54 13 -8 120 -15 120 -8
0 8 -73 97 -82 101 -5 2 -1 16 7 30 23 42 44 100 38 106 -5 4 -33 -6 -101 -37
-21 -10 -36 -2 -82 43 -3 3 -15 14 -28 25 l-24 20 4 -74z"/>
<path d="M384 732 c11 -19 -35 -52 -71 -52 l-36 0 28 -26 c26 -24 27 -28 17
-62 -13 -42 -9 -50 14 -31 25 21 52 21 74 -1 11 -11 21 -17 21 -12 1 4 3 18 4
32 1 14 3 30 4 36 0 6 13 16 27 23 27 12 27 20 2 25 -41 7 -57 19 -63 46 -4
17 -11 30 -16 30 -6 0 -8 -4 -5 -8z"/>
</g>
</svg>
